<svg width="313" height="399" viewBox="0 0 313 399" fill="none" xmlns="http://www.w3.org/2000/svg">
<g filter="url(#filter0_d)">
<path d="M110.583 54.0414V333.775C110.583 362.793 87.0592 386.316 58.0414 386.316C29.0236 386.316 5.5 362.793 5.5 333.775V54.0414C5.5 25.0236 29.0236 1.5 58.0414 1.5C87.0592 1.5 110.583 25.0236 110.583 54.0414Z" fill="url(#paint0_linear)" stroke="black"/>
<path d="M106.855 173.994L130.765 162.859C148.038 154.816 170.79 161.024 181.583 176.726L286.721 329.682C297.514 345.384 292.261 364.634 274.988 372.678L251.078 383.813C233.805 391.856 211.053 385.648 200.26 369.946L95.1223 216.99C84.3291 201.287 89.5818 182.038 106.855 173.994Z" fill="url(#paint1_linear)" stroke="black"/>
<rect x="5" y="1" width="303.446" height="203.061" rx="55" fill="url(#paint2_linear)" stroke="black"/>
</g>
<defs>
<filter id="filter0_d" x="0.5" y="0.5" width="312.446" height="406.5" filterUnits="userSpaceOnUse" color-interpolation-filters="sRGB">
<feFlood flood-opacity="0" result="BackgroundImageFix"/>
<feColorMatrix in="SourceAlpha" type="matrix" values="0 0 0 0 0 0 0 0 0 0 0 0 0 0 0 0 0 0 127 0" result="hardAlpha"/>
<feOffset dy="4"/>
<feGaussianBlur stdDeviation="2"/>
<feComposite in2="hardAlpha" operator="out"/>
<feColorMatrix type="matrix" values="0 0 0 0 0 0 0 0 0 0 0 0 0 0 0 0 0 0 0.25 0"/>
<feBlend mode="normal" in2="BackgroundImageFix" result="effect1_dropShadow"/>
<feBlend mode="normal" in="SourceGraphic" in2="effect1_dropShadow" result="shape"/>
</filter>
<linearGradient id="paint0_linear" x1="-64.8674" y1="241.034" x2="122.117" y2="327.559" gradientUnits="userSpaceOnUse">
<stop stop-color="#F30707"/>
<stop offset="0.9999" stop-color="#FAFF01" stop-opacity="0.96"/>
<stop offset="1" stop-color="#16160B" stop-opacity="0.96"/>
</linearGradient>
<linearGradient id="paint1_linear" x1="107.382" y1="346.204" x2="293.64" y2="347.703" gradientUnits="userSpaceOnUse">
<stop stop-color="#F30707"/>
<stop offset="0.9999" stop-color="#FAFF01" stop-opacity="0.96"/>
<stop offset="1" stop-color="#16160B" stop-opacity="0.96"/>
</linearGradient>
<linearGradient id="paint2_linear" x1="-15" y1="132" x2="322" y2="132" gradientUnits="userSpaceOnUse">
<stop stop-color="#F30707"/>
<stop offset="0.9999" stop-color="#FAFF01" stop-opacity="0.96"/>
<stop offset="1" stop-color="#16160B" stop-opacity="0.96"/>
</linearGradient>
</defs>
</svg>
