<svg version="1.1" id="Layer_1" xmlns="http://www.w3.org/2000/svg" xmlns:xlink="http://www.w3.org/1999/xlink" x="0px" y="0px"
	 width="100%" viewBox="0 0 672 1008" enable-background="new 0 0 672 1008" xml:space="preserve">
<path fill="#000000" opacity="1.000000" stroke="none" 
	d="
M413.332123,334.312012 
	C391.274078,356.730347 365.141571,370.095825 334.049469,373.281464 
	C331.731628,373.518982 330.219452,374.051880 330.225525,376.720154 
	C330.271759,397.049713 330.281952,417.379364 330.333923,437.708923 
	C330.335052,438.143158 330.700287,438.576508 331.129303,439.528900 
	C337.491638,436.571625 343.797058,433.723877 350.031647,430.728577 
	C376.899963,417.820251 403.708801,404.787079 430.644043,392.020355 
	C434.715240,390.090668 437.174774,387.365112 439.037384,383.415405 
	C453.733154,352.252411 468.556183,321.149414 483.351654,290.033478 
	C484.639130,287.325806 485.934814,284.617188 487.359863,281.980957 
	C489.281769,278.425537 492.078705,276.872162 496.049133,278.724762 
	C500.148865,280.637695 500.289276,284.035309 498.904694,287.592743 
	C497.398071,291.463837 495.530396,295.198578 493.738953,298.953979 
	C478.328003,331.259460 462.880798,363.547607 447.513489,395.873779 
	C446.439728,398.132568 444.940765,399.522125 442.706818,400.596222 
	C408.487640,417.048920 374.466614,433.928131 339.990265,449.820404 
	C332.144104,453.437164 329.946411,457.452759 329.999420,465.728760 
	C330.380463,525.221252 330.241577,584.717346 330.150055,644.212036 
	C330.143097,648.734497 331.309052,652.605103 333.506195,656.491333 
	C348.333069,682.716370 363.021027,709.019836 377.768982,735.289551 
	C397.407227,770.270081 417.070007,805.236938 436.699005,840.222717 
	C442.968933,851.398010 449.195282,862.598145 455.381287,873.820129 
	C458.238403,879.003174 457.722900,882.765747 454.075500,884.741211 
	C450.299164,886.786560 446.836517,885.270752 444.029907,880.256104 
	C420.612579,838.416016 397.218323,796.563049 373.792999,754.727478 
	C358.095123,726.692444 342.365875,698.675049 326.612823,670.671021 
	C325.912262,669.425659 325.587158,667.792725 323.896362,667.228638 
	C322.348419,667.885498 322.057281,669.490601 321.409332,670.757812 
	C303.975616,704.853760 286.575653,738.966980 269.174927,773.079834 
	C253.441223,803.924622 237.725754,834.778809 221.970810,865.612732 
	C219.245636,870.946167 216.407318,876.223206 213.539139,881.481506 
	C211.612061,885.014404 209.042480,887.427734 204.662277,885.372803 
	C200.927078,883.620544 199.726028,880.070618 201.963638,875.643738 
	C212.403763,854.988892 223.026932,834.426636 233.561554,813.819458 
	C239.701675,801.808472 245.786880,789.769531 251.916641,777.753235 
	C268.109375,746.010132 284.300110,714.265991 300.520050,682.536743 
	C305.218109,673.346558 309.997803,664.197876 314.772095,655.046936 
	C316.024750,652.645996 316.825836,650.193237 316.823486,647.428101 
	C316.775513,590.933289 316.763275,534.438477 316.739075,477.943634 
	C316.738800,477.296387 316.674469,476.649139 316.579926,474.871582 
	C310.334747,485.150848 304.587463,494.568695 298.880859,504.011169 
	C280.215698,534.895508 261.583130,565.799500 242.894669,596.669617 
	C239.018936,603.071716 235.921692,604.570312 232.003937,602.293884 
	C227.974289,599.952393 227.708191,596.731873 231.596680,590.256775 
	C248.542465,562.038696 265.571686,533.870605 282.597870,505.700928 
	C293.175507,488.200287 303.770752,470.710083 314.439697,453.265137 
	C316.067963,450.602753 316.847595,447.901520 316.839325,444.786377 
	C316.781952,423.121735 316.690552,401.455597 316.911835,379.793030 
	C316.961365,374.945038 315.180847,373.667267 310.580261,373.261658 
	C268.982788,369.594269 237.013748,349.799438 214.366287,314.879791 
	C205.008835,300.451691 198.948441,284.698639 196.451874,267.614685 
	C190.691422,228.196106 200.603683,193.214157 226.973404,163.390793 
	C248.114532,139.480820 274.997986,125.227692 306.727234,122.011490 
	C359.214233,116.691208 404.790466,140.576401 429.743042,183.205170 
	C456.706177,229.268829 453.131226,283.274048 420.670197,325.652496 
	C418.444122,328.558685 415.948486,331.258362 413.332123,334.312012 
M215.308563,288.259491 
	C235.101685,338.136475 285.004517,368.616272 340.424927,359.322205 
	C401.130798,349.141785 442.479736,291.624817 433.528748,231.146591 
	C424.306519,168.835739 365.886505,125.557945 303.609528,135.607925 
	C232.429428,147.094666 190.077026,219.392563 215.308563,288.259491 
z"/>
</svg>